<?xml version="1.0" encoding="utf-8"?>
<!-- Generator: Adobe Illustrator 26.3.1, SVG Export Plug-In . SVG Version: 6.00 Build 0)  -->
<svg version="1.1" xmlns="http://www.w3.org/2000/svg" xmlns:xlink="http://www.w3.org/1999/xlink" x="0px" y="0px"
	 viewBox="0 0 151.2 42.2" style="enable-background:new 0 0 151.2 42.2;" xml:space="preserve">
<style type="text/css">
	.st0{display:none;}
	.st1{display:inline;}
	.st2{fill:#FFFFFF;stroke:#000000;stroke-width:0.25;stroke-miterlimit:10;}
	.st3{fill:#EA4335;}
	.st4{fill:#FBBC04;}
	.st5{fill:#4285F4;}
	.st6{fill:#34A853;}
	.st7{fill:#FFFFFF;}
	.st8{display:inline;opacity:0.43;}
	.st9{display:inline;fill:#FFFFFF;}
	.st10{display:inline;fill:#EA4335;}
	.st11{display:inline;fill:#FBBC04;}
	.st12{display:inline;fill:#4285F4;}
	.st13{display:inline;fill:#34A853;}
	.st14{opacity:0.43;}
</style>
<g id="Calque_1" class="st0">
	<path class="st1" d="M147.7,42.2H3.4c-1.9,0-3.4-1.5-3.4-3.4V3.4C0,1.5,1.5,0,3.4,0h144.3c1.9,0,3.4,1.5,3.4,3.4v35.4
		C151.2,40.7,149.6,42.2,147.7,42.2z"/>
	<g class="st8">
		<g class="st0">
			<path class="st9" d="M136,23.8l-2.3,5.8h-0.1l-2.4-5.8h-2.2l3.6,8.2l-2,4.5h2.1l5.5-12.7L136,23.8z M119.8,19h-2v13.5h2V19z
				 M112.3,19h-4.8v13.5h2v-5.1h2.8c2.4,0.1,4.3-1.8,4.4-4.1c0,0,0,0,0-0.1C116.7,20.8,114.7,18.9,112.3,19
				C112.3,19,112.3,19,112.3,19z M112.4,25.5h-2.8v-4.6h2.9c1.3,0,2.3,1,2.3,2.3C114.7,24.4,113.6,25.5,112.4,25.5L112.4,25.5z
				 M124.8,23.5c-1.5-0.1-2.9,0.7-3.6,2.1l1.8,0.8c0.4-0.7,1.1-1,1.8-1c1.1-0.1,2,0.7,2.1,1.7c0,0,0,0,0,0v0.1
				c-0.6-0.3-1.4-0.5-2.1-0.5c-1.9,0-3.9,1.1-3.9,3.1c0,1.8,1.6,3,3.3,3c1,0.1,2-0.4,2.6-1.3h0.1v1h2v-5.2
				C128.9,24.9,127.1,23.6,124.8,23.5L124.8,23.5z M124.5,30.9c-0.7,0-1.6-0.3-1.6-1.1c0-1,1.1-1.4,2.1-1.4c0.6,0,1.3,0.1,1.8,0.5
				C126.8,30,125.7,30.9,124.5,30.9L124.5,30.9z M52.1,32.7c-4,0-7.2-3.2-7.2-7.1c0.1-4,3.3-7.1,7.2-7.1c1.8,0,3.6,0.7,4.9,2
				l-1.4,1.4c-0.9-0.9-2.2-1.4-3.5-1.4c-2.9,0-5.2,2.3-5.2,5.2s2.3,5.2,5.2,5.2c1.3,0.1,2.7-0.5,3.6-1.4c0.6-0.7,1-1.5,1.1-2.4h-4.7
				V25h6.6c0.1,0.4,0.1,0.8,0.1,1.2c0.1,1.7-0.5,3.3-1.7,4.6C55.8,32.1,54,32.8,52.1,32.7z M69,28.2c0.1,2.5-1.8,4.6-4.3,4.7
				C62.1,33,60,31,59.9,28.5c0-0.1,0-0.2,0-0.4c-0.1-2.5,1.8-4.6,4.3-4.7c2.5-0.1,4.6,1.8,4.7,4.3C69,27.9,69,28,69,28.2z M67,28.2
				c0.1-1.4-0.9-2.7-2.3-2.8c-1.4-0.1-2.7,0.9-2.8,2.3c0,0.2,0,0.3,0,0.5c-0.1,1.4,0.9,2.7,2.3,2.8c1.4,0.1,2.7-0.9,2.8-2.3
				C67,28.5,67,28.3,67,28.2z M79.1,28.2c0,2.5-2,4.5-4.5,4.5s-4.5-2-4.5-4.5s2-4.5,4.5-4.5S79.1,25.7,79.1,28.2z M77.1,28.2
				c0.1-1.4-0.9-2.7-2.3-2.8c-1.4-0.1-2.7,0.9-2.8,2.3c0,0.2,0,0.3,0,0.5c-0.1,1.4,0.9,2.7,2.3,2.8c1.4,0.1,2.7-0.9,2.8-2.3
				C77.1,28.5,77.1,28.3,77.1,28.2z M89,23.9v8.2c0,3.4-2,4.8-4.4,4.8c-1.8,0-3.4-1-4.1-2.7l1.7-0.8c0.4,1,1.3,1.6,2.3,1.6
				c1.5,0,2.5-0.9,2.5-2.7v-0.7H87c-0.6,0.7-1.5,1.1-2.4,1c-2.5,0-4.6-2.1-4.6-4.6s2.1-4.6,4.6-4.6c0.9,0,1.8,0.4,2.4,1h0.1v-0.8
				L89,23.9L89,23.9z M87.2,28.2c0.1-1.4-0.9-2.7-2.4-2.8c0,0-0.1,0-0.1,0c-1.5,0-2.6,1.3-2.6,2.7c0,0,0,0,0,0.1
				c-0.1,1.5,1.1,2.7,2.5,2.8c0,0,0,0,0.1,0c1.4-0.1,2.5-1.2,2.5-2.7C87.2,28.2,87.2,28.2,87.2,28.2z M92.6,19v13.4h-2V19L92.6,19z
				 M100.5,29.7l1.6,1c-0.9,1.3-2.3,2-3.8,2c-2.4,0-4.5-1.9-4.5-4.4c0-0.1,0-0.1,0-0.2c-0.2-2.3,1.5-4.4,3.8-4.6
				c2-0.2,3.8,1,4.4,2.9l0.2,0.5l-6.1,2.5c0.4,0.9,1.3,1.4,2.2,1.4C99.2,30.9,100,30.4,100.5,29.7z M95.7,28l4.1-1.7
				c-0.3-0.6-1-1-1.7-1C96.7,25.4,95.6,26.6,95.7,28C95.7,28,95.7,28,95.7,28z"/>
			<path class="st10" d="M19.2,20.2L7,32.9c0.5,1.8,2.3,2.8,4.1,2.3c0.3-0.1,0.5-0.2,0.8-0.3l13.7-7.8L19.2,20.2z"/>
			<path class="st11" d="M31.5,18l-5.9-3.4l-6.7,5.9l6.7,6.6l5.9-3.4c1.6-0.8,2.2-2.8,1.4-4.4C32.6,18.8,32.1,18.3,31.5,18L31.5,18z
				"/>
			<path class="st12" d="M7,8.7C6.9,9,6.9,9.3,6.9,9.5v22.6c0,0.3,0,0.6,0.1,0.8l12.6-12.4L7,8.7z"/>
			<path class="st13" d="M19.3,20.8l6.3-6.2L11.9,6.8c-0.5-0.3-1.1-0.5-1.7-0.5c-1.5,0-2.8,1-3.2,2.4L19.3,20.8z"/>
		</g>
	</g>
	<g class="st1">
		<g>
			<path class="st7" d="M45.6,7.5c0.5-0.1,1.1-0.1,1.7-0.1c1.1,0,1.9,0.3,2.5,0.8c0.5,0.5,0.9,1.2,0.9,2.2c0,1-0.3,1.8-0.9,2.4
				c-0.6,0.6-1.5,0.9-2.7,0.9c-0.6,0-1,0-1.4-0.1V7.5z M46.4,12.8c0.2,0,0.5,0,0.8,0c1.7,0,2.6-0.9,2.6-2.6c0-1.4-0.8-2.3-2.5-2.3
				c-0.4,0-0.7,0-0.9,0.1V12.8z"/>
			<path class="st7" d="M53,7.4v6.1h-0.8V7.4H53z"/>
			<path class="st7" d="M55,12.5c0.4,0.2,0.9,0.4,1.4,0.4c0.8,0,1.3-0.4,1.3-1c0-0.6-0.3-0.9-1.1-1.2c-1-0.4-1.6-0.9-1.6-1.7
				c0-0.9,0.8-1.6,2-1.6c0.6,0,1.1,0.1,1.3,0.3L58,8.2c-0.2-0.1-0.6-0.3-1.1-0.3c-0.8,0-1.1,0.5-1.1,0.9c0,0.6,0.4,0.8,1.2,1.2
				c1,0.4,1.5,0.9,1.5,1.8c0,0.9-0.7,1.8-2.1,1.8c-0.6,0-1.2-0.2-1.6-0.4L55,12.5z"/>
			<path class="st7" d="M60.2,7.4c0.4-0.1,0.9-0.1,1.5-0.1c0.8,0,1.3,0.2,1.7,0.5c0.3,0.3,0.5,0.7,0.5,1.3c0,0.6-0.2,1-0.5,1.3
				c-0.4,0.4-1.1,0.7-1.9,0.7c-0.2,0-0.5,0-0.6-0.1v2.4h-0.8V7.4z M61,10.4c0.2,0,0.4,0.1,0.6,0.1c1,0,1.5-0.5,1.5-1.3
				c0-0.8-0.6-1.2-1.4-1.2c-0.3,0-0.6,0-0.7,0.1V10.4z"/>
			<path class="st7" d="M70.8,10.3c0,2.1-1.3,3.2-2.8,3.2c-1.6,0-2.7-1.2-2.7-3.1c0-1.9,1.2-3.2,2.8-3.2
				C69.8,7.3,70.8,8.5,70.8,10.3z M66.1,10.4c0,1.3,0.7,2.5,1.9,2.5c1.2,0,1.9-1.1,1.9-2.5c0-1.2-0.6-2.5-1.9-2.5
				C66.8,7.9,66.1,9.1,66.1,10.4z"/>
			<path class="st7" d="M72.5,13.4V7.4h0.9l1.9,3.1c0.4,0.7,0.8,1.3,1.1,2l0,0c-0.1-0.8-0.1-1.5-0.1-2.5V7.4h0.7v6.1h-0.8l-1.9-3.1
				c-0.4-0.7-0.8-1.4-1.1-2l0,0c0,0.8,0.1,1.5,0.1,2.5v2.6H72.5z"/>
			<path class="st7" d="M79.9,7.4v6.1h-0.8V7.4H79.9z"/>
			<path class="st7" d="M81.9,7.5c0.3-0.1,0.9-0.1,1.4-0.1c0.8,0,1.3,0.1,1.7,0.4c0.3,0.2,0.5,0.6,0.5,1.1c0,0.6-0.4,1.1-1,1.3v0
				c0.6,0.1,1.3,0.6,1.3,1.5c0,0.5-0.2,0.9-0.5,1.2c-0.4,0.4-1.1,0.6-2.1,0.6c-0.5,0-1,0-1.2-0.1V7.5z M82.7,9.9h0.7
				c0.8,0,1.3-0.4,1.3-1c0-0.7-0.5-1-1.3-1c-0.4,0-0.6,0-0.7,0.1V9.9z M82.7,12.8c0.2,0,0.4,0,0.7,0c0.8,0,1.6-0.3,1.6-1.2
				c0-0.8-0.7-1.2-1.6-1.2h-0.7V12.8z"/>
			<path class="st7" d="M87.5,7.4h0.8v5.4h2.6v0.7h-3.4V7.4z"/>
			<path class="st7" d="M95.6,10.6h-2.4v2.2h2.6v0.7h-3.4V7.4h3.3V8h-2.5v1.9h2.4V10.6z"/>
			<path class="st7" d="M100,12.5c0.3,0.2,0.9,0.4,1.4,0.4c0.8,0,1.3-0.4,1.3-1c0-0.6-0.3-0.9-1.1-1.2c-1-0.4-1.6-0.9-1.6-1.7
				c0-0.9,0.8-1.6,2-1.6c0.6,0,1.1,0.1,1.3,0.3L103,8.2c-0.2-0.1-0.6-0.3-1.1-0.3c-0.8,0-1.1,0.5-1.1,0.9c0,0.6,0.4,0.8,1.2,1.2
				c1,0.4,1.5,0.9,1.5,1.8c0,0.9-0.7,1.8-2.1,1.8c-0.6,0-1.2-0.2-1.5-0.4L100,12.5z"/>
			<path class="st7" d="M106,7.4V11c0,1.4,0.6,1.9,1.4,1.9c0.9,0,1.5-0.6,1.5-1.9V7.4h0.8v3.5c0,1.9-1,2.6-2.3,2.6
				c-1.2,0-2.2-0.7-2.2-2.6V7.4H106z"/>
			<path class="st7" d="M111.7,7.5c0.4-0.1,1-0.1,1.5-0.1c0.8,0,1.4,0.2,1.8,0.5c0.3,0.3,0.5,0.7,0.5,1.2c0,0.8-0.5,1.3-1.1,1.5v0
				c0.5,0.2,0.7,0.6,0.9,1.2c0.2,0.8,0.3,1.4,0.5,1.7h-0.8c-0.1-0.2-0.2-0.7-0.4-1.5c-0.2-0.8-0.5-1.2-1.2-1.2h-0.7v2.6h-0.8V7.5z
				 M112.5,10.2h0.8c0.8,0,1.4-0.5,1.4-1.2c0-0.8-0.6-1.1-1.4-1.1c-0.4,0-0.6,0-0.8,0.1V10.2z"/>
		</g>
	</g>
	<g class="st1">
		<g>
			<path class="st7" d="M47.5,28.2L46,32.7h-1.9l4.8-14.2h2.2L56,32.7h-2l-1.5-4.4H47.5z M52.1,26.8l-1.4-4.1
				c-0.3-0.9-0.5-1.8-0.7-2.6h0c-0.2,0.8-0.4,1.7-0.7,2.6l-1.4,4.1H52.1z"/>
			<path class="st7" d="M58,25.8c0-1.3,0-2.3-0.1-3.3h1.7l0.1,1.7h0c0.7-1.2,2-2,3.6-2c2.5,0,4.3,2.1,4.3,5.2c0,3.7-2.2,5.5-4.6,5.5
				c-1.4,0-2.5-0.6-3.1-1.6h0v5.5H58V25.8z M59.8,28.5c0,0.3,0,0.5,0.1,0.8c0.3,1.3,1.5,2.2,2.8,2.2c2,0,3.1-1.6,3.1-3.9
				c0-2-1.1-3.8-3-3.8c-1.3,0-2.4,0.9-2.8,2.3c-0.1,0.2-0.1,0.5-0.1,0.8V28.5z"/>
			<path class="st7" d="M69.9,25.8c0-1.3,0-2.3-0.1-3.3h1.7l0.1,1.7h0c0.7-1.2,2-2,3.6-2c2.5,0,4.3,2.1,4.3,5.2
				c0,3.7-2.2,5.5-4.6,5.5c-1.4,0-2.5-0.6-3.1-1.6h0v5.5h-1.8V25.8z M71.8,28.5c0,0.3,0,0.5,0.1,0.8c0.3,1.3,1.5,2.2,2.8,2.2
				c2,0,3.1-1.6,3.1-3.9c0-2-1.1-3.8-3-3.8c-1.3,0-2.4,0.9-2.8,2.3c-0.1,0.2-0.1,0.5-0.1,0.8V28.5z"/>
			<path class="st7" d="M86.1,30.5c0.8,0.5,2,0.9,3.3,0.9c1.9,0,3-1,3-2.4c0-1.3-0.8-2.1-2.7-2.8c-2.3-0.8-3.7-2-3.7-4
				c0-2.2,1.8-3.8,4.6-3.8c1.4,0,2.5,0.3,3.1,0.7l-0.5,1.5c-0.5-0.3-1.4-0.7-2.7-0.7c-1.9,0-2.7,1.2-2.7,2.1c0,1.3,0.9,2,2.8,2.7
				c2.4,0.9,3.6,2.1,3.6,4.2c0,2.2-1.6,4.1-5,4.1c-1.4,0-2.9-0.4-3.6-0.9L86.1,30.5z"/>
			<path class="st7" d="M98.9,19.6v2.9h2.7v1.4h-2.7v5.5c0,1.3,0.4,2,1.4,2c0.5,0,0.8-0.1,1.1-0.1l0.1,1.4c-0.4,0.1-0.9,0.3-1.7,0.3
				c-0.8,0-1.6-0.3-2-0.8c-0.5-0.6-0.7-1.5-0.7-2.6v-5.5h-1.6v-1.4h1.6v-2.4L98.9,19.6z"/>
			<path class="st7" d="M112.8,27.5c0,3.8-2.6,5.4-5,5.4c-2.8,0-4.9-2-4.9-5.2c0-3.4,2.2-5.4,5-5.4
				C110.9,22.3,112.8,24.4,112.8,27.5z M104.8,27.6c0,2.2,1.3,3.9,3.1,3.9c1.8,0,3.1-1.7,3.1-4c0-1.7-0.9-3.9-3.1-3.9
				C105.7,23.7,104.8,25.7,104.8,27.6z"/>
			<path class="st7" d="M115.2,25.7c0-1.2,0-2.2-0.1-3.2h1.6l0.1,2h0.1c0.5-1.4,1.6-2.2,2.8-2.2c0.2,0,0.3,0,0.5,0.1v1.7
				c-0.2,0-0.4-0.1-0.6-0.1c-1.3,0-2.2,1-2.5,2.4c0,0.3-0.1,0.6-0.1,0.9v5.4h-1.8V25.7z"/>
			<path class="st7" d="M123.1,27.9c0,2.5,1.6,3.5,3.5,3.5c1.3,0,2.1-0.2,2.8-0.5l0.3,1.3c-0.6,0.3-1.8,0.6-3.4,0.6
				c-3.1,0-5-2.1-5-5.1c0-3.1,1.8-5.5,4.8-5.5c3.3,0,4.2,2.9,4.2,4.8c0,0.4,0,0.7-0.1,0.9H123.1z M128.5,26.6c0-1.2-0.5-3-2.5-3
				c-1.9,0-2.7,1.7-2.8,3H128.5z"/>
		</g>
	</g>
	<path class="st9" d="M25.3,13.7c-2.5,0-3.6,1.2-5.4,1.2c-1.8,0-3.2-1.2-5.4-1.2c-2.1,0-4.4,1.3-5.9,3.5c-2,3.1-1.7,9.1,1.6,14.1
		c1.2,1.8,2.8,3.8,4.8,3.8h0c1.8,0,2.3-1.2,4.8-1.2h0c2.4,0,2.9,1.2,4.7,1.2h0c2.1,0,3.7-2.3,4.9-4.1c0.8-1.3,1.2-1.9,1.8-3.4
		c-4.8-1.8-5.5-8.6-0.8-11.2C29.2,14.7,27.2,13.7,25.3,13.7L25.3,13.7z"/>
	<path class="st9" d="M24.7,7.1c-1.5,0.1-3.3,1.1-4.3,2.3c-0.9,1.1-1.7,2.8-1.4,4.4h0.1c1.6,0,3.2-1,4.2-2.2
		C24.3,10.5,25,8.8,24.7,7.1z"/>
</g>
<g id="vetorisé">
	<g>
		<path d="M147.7,42.2H3.4c-1.9,0-3.4-1.5-3.4-3.4V3.4C0,1.5,1.5,0,3.4,0h144.3c1.9,0,3.4,1.5,3.4,3.4v35.4
			C151.2,40.7,149.6,42.2,147.7,42.2z"/>
	</g>
	<g class="st14">
		<g class="st0">
			<path class="st9" d="M136,23.8l-2.3,5.8h-0.1l-2.4-5.8h-2.2l3.6,8.2l-2,4.5h2.1l5.5-12.7L136,23.8z M119.8,19h-2v13.5h2V19z
				 M112.3,19h-4.8v13.5h2v-5.1h2.8c2.4,0.1,4.3-1.8,4.4-4.1c0,0,0,0,0-0.1C116.7,20.8,114.7,18.9,112.3,19
				C112.3,19,112.3,19,112.3,19z M112.4,25.5h-2.8v-4.6h2.9c1.3,0,2.3,1,2.3,2.3C114.7,24.4,113.6,25.5,112.4,25.5L112.4,25.5z
				 M124.8,23.5c-1.5-0.1-2.9,0.7-3.6,2.1l1.8,0.8c0.4-0.7,1.1-1,1.8-1c1.1-0.1,2,0.7,2.1,1.7c0,0,0,0,0,0v0.1
				c-0.6-0.3-1.4-0.5-2.1-0.5c-1.9,0-3.9,1.1-3.9,3.1c0,1.8,1.6,3,3.3,3c1,0.1,2-0.4,2.6-1.3h0.1v1h2v-5.2
				C128.9,24.9,127.1,23.6,124.8,23.5L124.8,23.5z M124.5,30.9c-0.7,0-1.6-0.3-1.6-1.1c0-1,1.1-1.4,2.1-1.4c0.6,0,1.3,0.1,1.8,0.5
				C126.8,30,125.7,30.9,124.5,30.9L124.5,30.9z M52.1,32.7c-4,0-7.2-3.2-7.2-7.1c0.1-4,3.3-7.1,7.2-7.1c1.8,0,3.6,0.7,4.9,2
				l-1.4,1.4c-0.9-0.9-2.2-1.4-3.5-1.4c-2.9,0-5.2,2.3-5.2,5.2s2.3,5.2,5.2,5.2c1.3,0.1,2.7-0.5,3.6-1.4c0.6-0.7,1-1.5,1.1-2.4h-4.7
				V25h6.6c0.1,0.4,0.1,0.8,0.1,1.2c0.1,1.7-0.5,3.3-1.7,4.6C55.8,32.1,54,32.8,52.1,32.7z M69,28.2c0.1,2.5-1.8,4.6-4.3,4.7
				C62.1,33,60,31,59.9,28.5c0-0.1,0-0.2,0-0.4c-0.1-2.5,1.8-4.6,4.3-4.7c2.5-0.1,4.6,1.8,4.7,4.3C69,27.9,69,28,69,28.2z M67,28.2
				c0.1-1.4-0.9-2.7-2.3-2.8c-1.4-0.1-2.7,0.9-2.8,2.3c0,0.2,0,0.3,0,0.5c-0.1,1.4,0.9,2.7,2.3,2.8c1.4,0.1,2.7-0.9,2.8-2.3
				C67,28.5,67,28.3,67,28.2z M79.1,28.2c0,2.5-2,4.5-4.5,4.5s-4.5-2-4.5-4.5s2-4.5,4.5-4.5S79.1,25.7,79.1,28.2z M77.1,28.2
				c0.1-1.4-0.9-2.7-2.3-2.8c-1.4-0.1-2.7,0.9-2.8,2.3c0,0.2,0,0.3,0,0.5c-0.1,1.4,0.9,2.7,2.3,2.8c1.4,0.1,2.7-0.9,2.8-2.3
				C77.1,28.5,77.1,28.3,77.1,28.2z M89,23.9v8.2c0,3.4-2,4.8-4.4,4.8c-1.8,0-3.4-1-4.1-2.7l1.7-0.8c0.4,1,1.3,1.6,2.3,1.6
				c1.5,0,2.5-0.9,2.5-2.7v-0.7H87c-0.6,0.7-1.5,1.1-2.4,1c-2.5,0-4.6-2.1-4.6-4.6s2.1-4.6,4.6-4.6c0.9,0,1.8,0.4,2.4,1h0.1v-0.8
				L89,23.9L89,23.9z M87.2,28.2c0.1-1.4-0.9-2.7-2.4-2.8c0,0-0.1,0-0.1,0c-1.5,0-2.6,1.3-2.6,2.7c0,0,0,0,0,0.1
				c-0.1,1.5,1.1,2.7,2.5,2.8c0,0,0,0,0.1,0c1.4-0.1,2.5-1.2,2.5-2.7C87.2,28.2,87.2,28.2,87.2,28.2z M92.6,19v13.4h-2V19L92.6,19z
				 M100.5,29.7l1.6,1c-0.9,1.3-2.3,2-3.8,2c-2.4,0-4.5-1.9-4.5-4.4c0-0.1,0-0.1,0-0.2c-0.2-2.3,1.5-4.4,3.8-4.6
				c2-0.2,3.8,1,4.4,2.9l0.2,0.5l-6.1,2.5c0.4,0.9,1.3,1.4,2.2,1.4C99.2,30.9,100,30.4,100.5,29.7z M95.7,28l4.1-1.7
				c-0.3-0.6-1-1-1.7-1C96.7,25.4,95.6,26.6,95.7,28C95.7,28,95.7,28,95.7,28z"/>
			<path class="st10" d="M19.2,20.2L7,32.9c0.5,1.8,2.3,2.8,4.1,2.3c0.3-0.1,0.5-0.2,0.8-0.3l13.7-7.8L19.2,20.2z"/>
			<path class="st11" d="M31.5,18l-5.9-3.4l-6.7,5.9l6.7,6.6l5.9-3.4c1.6-0.8,2.2-2.8,1.4-4.4C32.6,18.8,32.1,18.3,31.5,18L31.5,18z
				"/>
			<path class="st12" d="M7,8.7C6.9,9,6.9,9.3,6.9,9.5v22.6c0,0.3,0,0.6,0.1,0.8l12.6-12.4L7,8.7z"/>
			<path class="st13" d="M19.3,20.8l6.3-6.2L11.9,6.8c-0.5-0.3-1.1-0.5-1.7-0.5c-1.5,0-2.8,1-3.2,2.4L19.3,20.8z"/>
		</g>
	</g>
	<g>
		<path class="st7" d="M45.6,7.5c0.5-0.1,1.1-0.1,1.7-0.1c1.1,0,1.9,0.3,2.5,0.8c0.5,0.5,0.9,1.2,0.9,2.2c0,1-0.3,1.8-0.9,2.4
			c-0.6,0.6-1.5,0.9-2.7,0.9c-0.6,0-1,0-1.4-0.1V7.5z M46.4,12.8c0.2,0,0.5,0,0.8,0c1.7,0,2.6-0.9,2.6-2.6c0-1.4-0.8-2.3-2.5-2.3
			c-0.4,0-0.7,0-0.9,0.1V12.8z"/>
		<path class="st7" d="M53,7.4v6.1h-0.8V7.4H53z"/>
		<path class="st7" d="M55,12.5c0.4,0.2,0.9,0.4,1.4,0.4c0.8,0,1.3-0.4,1.3-1c0-0.6-0.3-0.9-1.1-1.2c-1-0.4-1.6-0.9-1.6-1.7
			c0-0.9,0.8-1.6,2-1.6c0.6,0,1.1,0.1,1.3,0.3L58,8.2c-0.2-0.1-0.6-0.3-1.1-0.3c-0.8,0-1.1,0.5-1.1,0.9c0,0.6,0.4,0.8,1.2,1.2
			c1,0.4,1.5,0.9,1.5,1.8c0,0.9-0.7,1.8-2.1,1.8c-0.6,0-1.2-0.2-1.6-0.4L55,12.5z"/>
		<path class="st7" d="M60.2,7.4c0.4-0.1,0.9-0.1,1.5-0.1c0.8,0,1.3,0.2,1.7,0.5c0.3,0.3,0.5,0.7,0.5,1.3c0,0.6-0.2,1-0.5,1.3
			c-0.4,0.4-1.1,0.7-1.9,0.7c-0.2,0-0.5,0-0.6-0.1v2.4h-0.8V7.4z M61,10.4c0.2,0,0.4,0.1,0.6,0.1c1,0,1.5-0.5,1.5-1.3
			c0-0.8-0.6-1.2-1.4-1.2c-0.3,0-0.6,0-0.7,0.1V10.4z"/>
		<path class="st7" d="M70.8,10.3c0,2.1-1.3,3.2-2.8,3.2c-1.6,0-2.7-1.2-2.7-3.1c0-1.9,1.2-3.2,2.8-3.2C69.8,7.3,70.8,8.5,70.8,10.3
			z M66.1,10.4c0,1.3,0.7,2.5,1.9,2.5c1.2,0,1.9-1.1,1.9-2.5c0-1.2-0.6-2.5-1.9-2.5C66.8,7.9,66.1,9.1,66.1,10.4z"/>
		<path class="st7" d="M72.5,13.4V7.4h0.9l1.9,3.1c0.4,0.7,0.8,1.3,1.1,2l0,0c-0.1-0.8-0.1-1.5-0.1-2.5V7.4h0.7v6.1h-0.8l-1.9-3.1
			c-0.4-0.7-0.8-1.4-1.1-2l0,0c0,0.8,0.1,1.5,0.1,2.5v2.6H72.5z"/>
		<path class="st7" d="M79.9,7.4v6.1h-0.8V7.4H79.9z"/>
		<path class="st7" d="M81.9,7.5c0.3-0.1,0.9-0.1,1.4-0.1c0.8,0,1.3,0.1,1.7,0.4c0.3,0.2,0.5,0.6,0.5,1.1c0,0.6-0.4,1.1-1,1.3v0
			c0.6,0.1,1.3,0.6,1.3,1.5c0,0.5-0.2,0.9-0.5,1.2c-0.4,0.4-1.1,0.6-2.1,0.6c-0.5,0-1,0-1.2-0.1V7.5z M82.7,9.9h0.7
			c0.8,0,1.3-0.4,1.3-1c0-0.7-0.5-1-1.3-1c-0.4,0-0.6,0-0.7,0.1V9.9z M82.7,12.8c0.2,0,0.4,0,0.7,0c0.8,0,1.6-0.3,1.6-1.2
			c0-0.8-0.7-1.2-1.6-1.2h-0.7V12.8z"/>
		<path class="st7" d="M87.5,7.4h0.8v5.4h2.6v0.7h-3.4V7.4z"/>
		<path class="st7" d="M95.6,10.6h-2.4v2.2h2.6v0.7h-3.4V7.4h3.3V8h-2.5v1.9h2.4V10.6z"/>
		<path class="st7" d="M100,12.5c0.3,0.2,0.9,0.4,1.4,0.4c0.8,0,1.3-0.4,1.3-1c0-0.6-0.3-0.9-1.1-1.2c-1-0.4-1.6-0.9-1.6-1.7
			c0-0.9,0.8-1.6,2-1.6c0.6,0,1.1,0.1,1.3,0.3L103,8.2c-0.2-0.1-0.6-0.3-1.1-0.3c-0.8,0-1.1,0.5-1.1,0.9c0,0.6,0.4,0.8,1.2,1.2
			c1,0.4,1.5,0.9,1.5,1.8c0,0.9-0.7,1.8-2.1,1.8c-0.6,0-1.2-0.2-1.5-0.4L100,12.5z"/>
		<path class="st7" d="M106,7.4V11c0,1.4,0.6,1.9,1.4,1.9c0.9,0,1.5-0.6,1.5-1.9V7.4h0.8v3.5c0,1.9-1,2.6-2.3,2.6
			c-1.2,0-2.2-0.7-2.2-2.6V7.4H106z"/>
		<path class="st7" d="M111.7,7.5c0.4-0.1,1-0.1,1.5-0.1c0.8,0,1.4,0.2,1.8,0.5c0.3,0.3,0.5,0.7,0.5,1.2c0,0.8-0.5,1.3-1.1,1.5v0
			c0.5,0.2,0.7,0.6,0.9,1.2c0.2,0.8,0.3,1.4,0.5,1.7h-0.8c-0.1-0.2-0.2-0.7-0.4-1.5c-0.2-0.8-0.5-1.2-1.2-1.2h-0.7v2.6h-0.8V7.5z
			 M112.5,10.2h0.8c0.8,0,1.4-0.5,1.4-1.2c0-0.8-0.6-1.1-1.4-1.1c-0.4,0-0.6,0-0.8,0.1V10.2z"/>
	</g>
	<g>
		<path class="st7" d="M47.5,28.2L46,32.7h-1.9l4.8-14.2h2.2L56,32.7h-2l-1.5-4.4H47.5z M52.1,26.8l-1.4-4.1
			c-0.3-0.9-0.5-1.8-0.7-2.6h0c-0.2,0.8-0.4,1.7-0.7,2.6l-1.4,4.1H52.1z"/>
		<path class="st7" d="M57.9,25.8c0-1.3,0-2.3-0.1-3.3h1.7l0.1,1.7h0c0.7-1.2,2-2,3.6-2c2.5,0,4.3,2.1,4.3,5.2
			c0,3.7-2.2,5.5-4.6,5.5c-1.4,0-2.5-0.6-3.1-1.6h0v5.5h-1.8V25.8z M59.8,28.5c0,0.3,0,0.5,0.1,0.8c0.3,1.3,1.5,2.2,2.8,2.2
			c2,0,3.1-1.6,3.1-3.9c0-2-1.1-3.8-3-3.8c-1.3,0-2.4,0.9-2.8,2.3c-0.1,0.2-0.1,0.5-0.1,0.8V28.5z"/>
		<path class="st7" d="M69.9,25.8c0-1.3,0-2.3-0.1-3.3h1.7l0.1,1.7h0c0.7-1.2,2-2,3.6-2c2.5,0,4.3,2.1,4.3,5.2
			c0,3.7-2.2,5.5-4.6,5.5c-1.4,0-2.5-0.6-3.1-1.6h0v5.5h-1.8V25.8z M71.7,28.5c0,0.3,0,0.5,0.1,0.8c0.3,1.3,1.5,2.2,2.8,2.2
			c2,0,3.1-1.6,3.1-3.9c0-2-1.1-3.8-3-3.8c-1.3,0-2.4,0.9-2.8,2.3c-0.1,0.2-0.1,0.5-0.1,0.8V28.5z"/>
		<path class="st7" d="M86.1,30.5c0.8,0.5,2,0.9,3.3,0.9c1.9,0,3-1,3-2.4c0-1.3-0.8-2.1-2.7-2.8c-2.3-0.8-3.7-2-3.7-4
			c0-2.2,1.8-3.8,4.6-3.8c1.4,0,2.5,0.3,3.1,0.7l-0.5,1.5c-0.5-0.3-1.4-0.7-2.7-0.7c-1.9,0-2.7,1.2-2.7,2.1c0,1.3,0.9,2,2.8,2.7
			c2.4,0.9,3.6,2.1,3.6,4.2c0,2.2-1.6,4.1-5,4.1c-1.4,0-2.9-0.4-3.6-0.9L86.1,30.5z"/>
		<path class="st7" d="M98.8,19.6v2.9h2.7v1.4h-2.7v5.5c0,1.3,0.4,2,1.4,2c0.5,0,0.8-0.1,1.1-0.1l0.1,1.4c-0.4,0.1-0.9,0.3-1.7,0.3
			c-0.8,0-1.6-0.3-2-0.8c-0.5-0.6-0.7-1.5-0.7-2.6v-5.5h-1.6v-1.4H97v-2.4L98.8,19.6z"/>
		<path class="st7" d="M112.6,27.5c0,3.8-2.6,5.4-5,5.4c-2.8,0-4.9-2-4.9-5.2c0-3.4,2.2-5.4,5-5.4C110.6,22.3,112.6,24.4,112.6,27.5
			z M104.5,27.6c0,2.2,1.3,3.9,3.1,3.9c1.8,0,3.1-1.7,3.1-4c0-1.7-0.9-3.9-3.1-3.9C105.5,23.7,104.5,25.7,104.5,27.6z"/>
		<path class="st7" d="M114.9,25.7c0-1.2,0-2.2-0.1-3.2h1.6l0.1,2h0.1c0.5-1.4,1.6-2.2,2.8-2.2c0.2,0,0.3,0,0.5,0.1v1.7
			c-0.2,0-0.4-0.1-0.6-0.1c-1.3,0-2.2,1-2.5,2.4c0,0.3-0.1,0.6-0.1,0.9v5.4h-1.8V25.7z"/>
		<path class="st7" d="M122.6,27.9c0,2.5,1.6,3.5,3.5,3.5c1.3,0,2.1-0.2,2.8-0.5l0.3,1.3c-0.6,0.3-1.8,0.6-3.4,0.6
			c-3.1,0-5-2.1-5-5.1c0-3.1,1.8-5.5,4.8-5.5c3.3,0,4.2,2.9,4.2,4.8c0,0.4,0,0.7-0.1,0.9H122.6z M128,26.6c0-1.2-0.5-3-2.5-3
			c-1.9,0-2.7,1.7-2.8,3H128z"/>
	</g>
	<g>
		<path class="st7" d="M25.3,13.7c-2.5,0-3.6,1.2-5.4,1.2c-1.8,0-3.2-1.2-5.4-1.2c-2.1,0-4.4,1.3-5.9,3.5c-2,3.1-1.7,9.1,1.6,14.1
			c1.2,1.8,2.8,3.8,4.8,3.8h0c1.8,0,2.3-1.2,4.8-1.2h0c2.4,0,2.9,1.2,4.7,1.2h0c2.1,0,3.7-2.3,4.9-4.1c0.8-1.3,1.2-1.9,1.8-3.4
			c-4.8-1.8-5.5-8.6-0.8-11.2C29.2,14.7,27.2,13.7,25.3,13.7L25.3,13.7z"/>
	</g>
	<g>
		<path class="st7" d="M24.7,7.1c-1.5,0.1-3.3,1.1-4.3,2.3c-0.9,1.1-1.7,2.8-1.4,4.4h0.1c1.6,0,3.2-1,4.2-2.2
			C24.3,10.5,25,8.8,24.7,7.1z"/>
	</g>
</g>
</svg>
