<?xml version="1.0" encoding="utf-8"?>
<!-- Generator: Adobe Illustrator 27.1.1, SVG Export Plug-In . SVG Version: 6.00 Build 0)  -->
<svg version="1.1" id="Calque_1" xmlns="http://www.w3.org/2000/svg" xmlns:xlink="http://www.w3.org/1999/xlink" x="0px" y="0px"
	 viewBox="0 0 394.6 414" style="enable-background:new 0 0 394.6 414;" xml:space="preserve">
<style type="text/css">
	.st0{fill:#B6C7E5;}
	.st1{fill:#26A69A;}
	.st2{fill:#FFFFFF;}
	.st3{display:none;fill:none;stroke:#26FF1A;stroke-miterlimit:10;}
	.st4{display:none;fill:none;stroke:#FF1737;stroke-miterlimit:10;}
</style>
<g id="yyy">
	
		<ellipse transform="matrix(0.2238 -0.9746 0.9746 0.2238 28.1874 487.9999)" class="st0" cx="320.5" cy="226.3" rx="23.7" ry="24"/>
	<path class="st1" d="M123.1,112l249.3,57.2c2.8,0.7,4.6,3.5,4,6.3l-29.3,127.6c-0.7,2.8-3.5,4.6-6.3,4L91.5,249.8
		c-2.8-0.7-4.6-3.5-4-6.3l29.3-127.6C117.4,113.1,120.3,111.3,123.1,112z"/>
	
		<rect x="55.7" y="100.2" transform="matrix(0.2238 -0.9746 0.9746 0.2238 -72.8258 170.4806)" class="st1" width="29.8" height="61.5"/>
	
		<rect x="45.7" y="138.3" transform="matrix(0.2238 -0.9746 0.9746 0.2238 -116.7822 191.5494)" class="st1" width="32.2" height="61.5"/>
	<g>
		
			<ellipse transform="matrix(0.2238 -0.9746 0.9746 0.2238 28.1874 487.9999)" class="st2" cx="320.5" cy="226.3" rx="23.7" ry="24"/>
	</g>
	
		<rect x="38.2" y="176.6" transform="matrix(0.2238 -0.9746 0.9746 0.2238 -160.8801 212.6911)" class="st1" width="29.9" height="61.5"/>
</g>
<line class="st3" x1="-1" y1="209" x2="396" y2="209"/>
<rect x="28" y="112" class="st4" width="338" height="193"/>
</svg>
