<?xml version="1.0" encoding="utf-8"?>
<!-- Generator: Adobe Illustrator 26.3.1, SVG Export Plug-In . SVG Version: 6.00 Build 0)  -->
<svg version="1.1" xmlns="http://www.w3.org/2000/svg" xmlns:xlink="http://www.w3.org/1999/xlink" x="0px" y="0px"
	 viewBox="0 0 151.2 42.2" style="enable-background:new 0 0 151.2 42.2;" xml:space="preserve">
<style type="text/css">
	.st0{display:none;}
	.st1{display:inline;}
	.st2{fill:#FFFFFF;stroke:#000000;stroke-width:0.25;stroke-miterlimit:10;}
	.st3{fill:#EA4335;}
	.st4{fill:#FBBC04;}
	.st5{fill:#4285F4;}
	.st6{fill:#34A853;}
	.st7{fill:#FFFFFF;}
	.st8{display:inline;opacity:0.43;}
	.st9{display:inline;fill:#FFFFFF;}
	.st10{display:inline;fill:#EA4335;}
	.st11{display:inline;fill:#FBBC04;}
	.st12{display:inline;fill:#4285F4;}
	.st13{display:inline;fill:#34A853;}
	.st14{opacity:0.43;}
</style>
<g id="Calque_1" class="st0">
	<path class="st1" d="M147.7,42.2H3.4c-1.9,0-3.4-1.5-3.4-3.4V3.4C0,1.5,1.5,0,3.4,0h144.3c1.9,0,3.4,1.5,3.4,3.4v35.4
		C151.2,40.7,149.6,42.2,147.7,42.2z"/>
	<g class="st1">
		<g>
			<path class="st2" d="M136,23.8l-2.3,5.8h-0.1l-2.4-5.8h-2.2l3.6,8.2l-2,4.5h2.1l5.5-12.7L136,23.8z M119.8,19h-2v13.5h2V19z
				 M112.3,19h-4.8v13.5h2v-5.1h2.8c2.4,0.1,4.3-1.8,4.4-4.1c0,0,0,0,0-0.1C116.7,20.8,114.7,18.9,112.3,19
				C112.3,19,112.3,19,112.3,19z M112.4,25.5h-2.8v-4.6h2.9c1.3,0,2.3,1,2.3,2.3C114.7,24.4,113.6,25.5,112.4,25.5L112.4,25.5z
				 M124.8,23.5c-1.5-0.1-2.9,0.7-3.6,2.1l1.8,0.8c0.4-0.7,1.1-1,1.8-1c1.1-0.1,2,0.7,2.1,1.7c0,0,0,0,0,0v0.1
				c-0.6-0.3-1.4-0.5-2.1-0.5c-1.9,0-3.9,1.1-3.9,3.1c0,1.8,1.6,3,3.3,3c1,0.1,2-0.4,2.6-1.3h0.1v1h2v-5.2
				C128.9,24.9,127.1,23.6,124.8,23.5L124.8,23.5z M124.5,30.9c-0.7,0-1.6-0.3-1.6-1.1c0-1,1.1-1.4,2.1-1.4c0.6,0,1.3,0.1,1.8,0.5
				C126.8,30,125.7,30.9,124.5,30.9L124.5,30.9z M52.1,32.7c-4,0-7.2-3.2-7.2-7.1c0.1-4,3.3-7.1,7.2-7.1c1.8,0,3.6,0.7,4.9,2
				l-1.4,1.4c-0.9-0.9-2.2-1.4-3.5-1.4c-2.9,0-5.2,2.3-5.2,5.2s2.3,5.2,5.2,5.2c1.3,0.1,2.7-0.5,3.6-1.4c0.6-0.7,1-1.5,1.1-2.4h-4.7
				V25h6.6c0.1,0.4,0.1,0.8,0.1,1.2c0.1,1.7-0.5,3.3-1.7,4.6C55.8,32.1,54,32.8,52.1,32.7z M69,28.2c0.1,2.5-1.8,4.6-4.3,4.7
				C62.1,33,60,31,59.9,28.5c0-0.1,0-0.2,0-0.4c-0.1-2.5,1.8-4.6,4.3-4.7c2.5-0.1,4.6,1.8,4.7,4.3C69,27.9,69,28,69,28.2z M67,28.2
				c0.1-1.4-0.9-2.7-2.3-2.8c-1.4-0.1-2.7,0.9-2.8,2.3c0,0.2,0,0.3,0,0.5c-0.1,1.4,0.9,2.7,2.3,2.8c1.4,0.1,2.7-0.9,2.8-2.3
				C67,28.5,67,28.3,67,28.2z M79.1,28.2c0,2.5-2,4.5-4.5,4.5s-4.5-2-4.5-4.5s2-4.5,4.5-4.5S79.1,25.7,79.1,28.2z M77.1,28.2
				c0.1-1.4-0.9-2.7-2.3-2.8c-1.4-0.1-2.7,0.9-2.8,2.3c0,0.2,0,0.3,0,0.5c-0.1,1.4,0.9,2.7,2.3,2.8c1.4,0.1,2.7-0.9,2.8-2.3
				C77.1,28.5,77.1,28.3,77.1,28.2z M89,23.9v8.2c0,3.4-2,4.8-4.4,4.8c-1.8,0-3.4-1-4.1-2.7l1.7-0.8c0.4,1,1.3,1.6,2.3,1.6
				c1.5,0,2.5-0.9,2.5-2.7v-0.7H87c-0.6,0.7-1.5,1.1-2.4,1c-2.5,0-4.6-2.1-4.6-4.6s2.1-4.6,4.6-4.6c0.9,0,1.8,0.4,2.4,1h0.1v-0.8
				L89,23.9L89,23.9z M87.2,28.2c0.1-1.4-0.9-2.7-2.4-2.8c0,0-0.1,0-0.1,0c-1.5,0-2.6,1.3-2.6,2.7c0,0,0,0,0,0.1
				c-0.1,1.5,1.1,2.7,2.5,2.8c0,0,0,0,0.1,0c1.4-0.1,2.5-1.2,2.5-2.7C87.2,28.2,87.2,28.2,87.2,28.2z M92.6,19v13.4h-2V19L92.6,19z
				 M100.5,29.7l1.6,1c-0.9,1.3-2.3,2-3.8,2c-2.4,0-4.5-1.9-4.5-4.4c0-0.1,0-0.1,0-0.2c-0.2-2.3,1.5-4.4,3.8-4.6
				c2-0.2,3.8,1,4.4,2.9l0.2,0.5l-6.1,2.5c0.4,0.9,1.3,1.4,2.2,1.4C99.2,30.9,100,30.4,100.5,29.7z M95.7,28l4.1-1.7
				c-0.3-0.6-1-1-1.7-1C96.7,25.4,95.6,26.6,95.7,28C95.7,28,95.7,28,95.7,28z"/>
			<path class="st3" d="M19.2,20.2L7.4,32.5c0.5,1.7,2.2,2.7,3.9,2.2c0.3-0.1,0.5-0.2,0.7-0.3l13.2-7.5L19.2,20.2z"/>
			<path class="st4" d="M31.1,18.1l-5.7-3.3l-6.4,5.7l6.5,6.4l5.7-3.2c1.5-0.8,2.1-2.7,1.3-4.2C32.1,18.8,31.7,18.4,31.1,18.1
				L31.1,18.1z"/>
			<path class="st5" d="M7.4,9.1C7.4,9.4,7.3,9.7,7.3,9.9v21.8c0,0.3,0,0.5,0.1,0.8l12.2-12L7.4,9.1z"/>
			<path class="st6" d="M19.3,20.8l6.1-6L12.2,7.2c-0.5-0.3-1.1-0.4-1.6-0.4c-1.4,0-2.7,0.9-3.1,2.3L19.3,20.8z"/>
		</g>
	</g>
	<g class="st1">
		<g>
			<path class="st7" d="M45.6,7.5c0.5-0.1,1.1-0.1,1.7-0.1c1.1,0,1.9,0.3,2.5,0.8c0.5,0.5,0.9,1.2,0.9,2.2c0,1-0.3,1.8-0.9,2.4
				c-0.6,0.6-1.5,0.9-2.7,0.9c-0.6,0-1,0-1.4-0.1V7.5z M46.4,12.8c0.2,0,0.5,0,0.8,0c1.7,0,2.6-0.9,2.6-2.6c0-1.4-0.8-2.3-2.5-2.3
				c-0.4,0-0.7,0-0.9,0.1V12.8z"/>
			<path class="st7" d="M53,7.4v6.1h-0.8V7.4H53z"/>
			<path class="st7" d="M55,12.5c0.4,0.2,0.9,0.4,1.4,0.4c0.8,0,1.3-0.4,1.3-1c0-0.6-0.3-0.9-1.1-1.2c-1-0.4-1.6-0.9-1.6-1.7
				c0-0.9,0.8-1.6,2-1.6c0.6,0,1.1,0.1,1.3,0.3L58,8.2c-0.2-0.1-0.6-0.3-1.1-0.3c-0.8,0-1.1,0.5-1.1,0.9c0,0.6,0.4,0.8,1.2,1.2
				c1,0.4,1.5,0.9,1.5,1.8c0,0.9-0.7,1.8-2.1,1.8c-0.6,0-1.2-0.2-1.6-0.4L55,12.5z"/>
			<path class="st7" d="M60.2,7.4c0.4-0.1,0.9-0.1,1.5-0.1c0.8,0,1.3,0.2,1.7,0.5c0.3,0.3,0.5,0.7,0.5,1.3c0,0.6-0.2,1-0.5,1.3
				c-0.4,0.4-1.1,0.7-1.9,0.7c-0.2,0-0.5,0-0.6-0.1v2.4h-0.8V7.4z M61,10.4c0.2,0,0.4,0.1,0.6,0.1c1,0,1.5-0.5,1.5-1.3
				c0-0.8-0.6-1.2-1.4-1.2c-0.3,0-0.6,0-0.7,0.1V10.4z"/>
			<path class="st7" d="M70.8,10.3c0,2.1-1.3,3.2-2.8,3.2c-1.6,0-2.7-1.2-2.7-3.1c0-1.9,1.2-3.2,2.8-3.2
				C69.8,7.3,70.8,8.5,70.8,10.3z M66.1,10.4c0,1.3,0.7,2.5,1.9,2.5c1.2,0,1.9-1.1,1.9-2.5c0-1.2-0.6-2.5-1.9-2.5
				C66.8,7.9,66.1,9.1,66.1,10.4z"/>
			<path class="st7" d="M72.5,13.4V7.4h0.9l1.9,3.1c0.4,0.7,0.8,1.3,1.1,2l0,0c-0.1-0.8-0.1-1.5-0.1-2.5V7.4h0.7v6.1h-0.8l-1.9-3.1
				c-0.4-0.7-0.8-1.4-1.1-2l0,0c0,0.8,0.1,1.5,0.1,2.5v2.6H72.5z"/>
			<path class="st7" d="M79.9,7.4v6.1h-0.8V7.4H79.9z"/>
			<path class="st7" d="M81.9,7.5c0.3-0.1,0.9-0.1,1.4-0.1c0.8,0,1.3,0.1,1.7,0.4c0.3,0.2,0.5,0.6,0.5,1.1c0,0.6-0.4,1.1-1,1.3v0
				c0.6,0.1,1.3,0.6,1.3,1.5c0,0.5-0.2,0.9-0.5,1.2c-0.4,0.4-1.1,0.6-2.1,0.6c-0.5,0-1,0-1.2-0.1V7.5z M82.7,9.9h0.7
				c0.8,0,1.3-0.4,1.3-1c0-0.7-0.5-1-1.3-1c-0.4,0-0.6,0-0.7,0.1V9.9z M82.7,12.8c0.2,0,0.4,0,0.7,0c0.8,0,1.6-0.3,1.6-1.2
				c0-0.8-0.7-1.2-1.6-1.2h-0.7V12.8z"/>
			<path class="st7" d="M87.5,7.4h0.8v5.4h2.6v0.7h-3.4V7.4z"/>
			<path class="st7" d="M95.6,10.6h-2.4v2.2h2.6v0.7h-3.4V7.4h3.3V8h-2.5v1.9h2.4V10.6z"/>
			<path class="st7" d="M100,12.5c0.3,0.2,0.9,0.4,1.4,0.4c0.8,0,1.3-0.4,1.3-1c0-0.6-0.3-0.9-1.1-1.2c-1-0.4-1.6-0.9-1.6-1.7
				c0-0.9,0.8-1.6,2-1.6c0.6,0,1.1,0.1,1.3,0.3L103,8.2c-0.2-0.1-0.6-0.3-1.1-0.3c-0.8,0-1.1,0.5-1.1,0.9c0,0.6,0.4,0.8,1.2,1.2
				c1,0.4,1.5,0.9,1.5,1.8c0,0.9-0.7,1.8-2.1,1.8c-0.6,0-1.2-0.2-1.5-0.4L100,12.5z"/>
			<path class="st7" d="M106,7.4V11c0,1.4,0.6,1.9,1.4,1.9c0.9,0,1.5-0.6,1.5-1.9V7.4h0.8v3.5c0,1.9-1,2.6-2.3,2.6
				c-1.2,0-2.2-0.7-2.2-2.6V7.4H106z"/>
			<path class="st7" d="M111.7,7.5c0.4-0.1,1-0.1,1.5-0.1c0.8,0,1.4,0.2,1.8,0.5c0.3,0.3,0.5,0.7,0.5,1.2c0,0.8-0.5,1.3-1.1,1.5v0
				c0.5,0.2,0.7,0.6,0.9,1.2c0.2,0.8,0.3,1.4,0.5,1.7h-0.8c-0.1-0.2-0.2-0.7-0.4-1.5c-0.2-0.8-0.5-1.2-1.2-1.2h-0.7v2.6h-0.8V7.5z
				 M112.5,10.2h0.8c0.8,0,1.4-0.5,1.4-1.2c0-0.8-0.6-1.1-1.4-1.1c-0.4,0-0.6,0-0.8,0.1V10.2z"/>
		</g>
	</g>
</g>
<g id="vetorisé">
	<g>
		<path d="M147.7,42.2H3.4c-1.9,0-3.4-1.5-3.4-3.4V3.4C0,1.5,1.5,0,3.4,0h144.3c1.9,0,3.4,1.5,3.4,3.4v35.4
			C151.2,40.7,149.6,42.2,147.7,42.2z"/>
	</g>
	<g>
		<g>
			<g>
				<path class="st7" d="M136,23.8l-2.3,5.8h-0.1l-2.4-5.8h-2.2l3.6,8.2l-2,4.5h2.1l5.5-12.7L136,23.8z M119.8,19h-2v13.5h2V19z
					 M112.3,19h-4.8v13.5h2v-5.1h2.8c2.4,0.1,4.3-1.8,4.4-4.1c0,0,0,0,0-0.1C116.7,20.8,114.7,18.9,112.3,19
					C112.3,19,112.3,19,112.3,19z M112.4,25.5h-2.8v-4.6h2.9c1.3,0,2.3,1,2.3,2.3C114.7,24.4,113.6,25.5,112.4,25.5L112.4,25.5z
					 M124.8,23.5c-1.5-0.1-2.9,0.7-3.6,2.1l1.8,0.8c0.4-0.7,1.1-1,1.8-1c1.1-0.1,2,0.7,2.1,1.7c0,0,0,0,0,0v0.1
					c-0.6-0.3-1.4-0.5-2.1-0.5c-1.9,0-3.9,1.1-3.9,3.1c0,1.8,1.6,3,3.3,3c1,0.1,2-0.4,2.6-1.3h0.1v1h2v-5.2
					C128.9,24.9,127.1,23.6,124.8,23.5L124.8,23.5z M124.5,30.9c-0.7,0-1.6-0.3-1.6-1.1c0-1,1.1-1.4,2.1-1.4c0.6,0,1.3,0.1,1.8,0.5
					C126.8,30,125.7,30.9,124.5,30.9L124.5,30.9z M52.1,32.7c-4,0-7.2-3.2-7.2-7.1c0.1-4,3.3-7.1,7.2-7.1c1.8,0,3.6,0.7,4.9,2
					l-1.4,1.4c-0.9-0.9-2.2-1.4-3.5-1.4c-2.9,0-5.2,2.3-5.2,5.2s2.3,5.2,5.2,5.2c1.3,0.1,2.7-0.5,3.6-1.4c0.6-0.7,1-1.5,1.1-2.4
					h-4.7V25h6.6c0.1,0.4,0.1,0.8,0.1,1.2c0.1,1.7-0.5,3.3-1.7,4.6C55.8,32.1,54,32.8,52.1,32.7z M69,28.2c0.1,2.5-1.8,4.6-4.3,4.7
					C62.1,33,60,31,59.9,28.5c0-0.1,0-0.2,0-0.4c-0.1-2.5,1.8-4.6,4.3-4.7c2.5-0.1,4.6,1.8,4.7,4.3C69,27.9,69,28,69,28.2z M67,28.2
					c0.1-1.4-0.9-2.7-2.3-2.8c-1.4-0.1-2.7,0.9-2.8,2.3c0,0.2,0,0.3,0,0.5c-0.1,1.4,0.9,2.7,2.3,2.8c1.4,0.1,2.7-0.9,2.8-2.3
					C67,28.5,67,28.3,67,28.2z M79.1,28.2c0,2.5-2,4.5-4.5,4.5s-4.5-2-4.5-4.5s2-4.5,4.5-4.5S79.1,25.7,79.1,28.2z M77.1,28.2
					c0.1-1.4-0.9-2.7-2.3-2.8c-1.4-0.1-2.7,0.9-2.8,2.3c0,0.2,0,0.3,0,0.5c-0.1,1.4,0.9,2.7,2.3,2.8c1.4,0.1,2.7-0.9,2.8-2.3
					C77.1,28.5,77.1,28.3,77.1,28.2z M89,23.9v8.2c0,3.4-2,4.8-4.4,4.8c-1.8,0-3.4-1-4.1-2.7l1.7-0.8c0.4,1,1.3,1.6,2.3,1.6
					c1.5,0,2.5-0.9,2.5-2.7v-0.7H87c-0.6,0.7-1.5,1.1-2.4,1c-2.5,0-4.6-2.1-4.6-4.6s2.1-4.6,4.6-4.6c0.9,0,1.8,0.4,2.4,1h0.1v-0.8
					L89,23.9L89,23.9z M87.2,28.2c0.1-1.4-0.9-2.7-2.4-2.8c0,0-0.1,0-0.1,0c-1.5,0-2.6,1.3-2.6,2.7c0,0,0,0,0,0.1
					c-0.1,1.5,1.1,2.7,2.5,2.8c0,0,0,0,0.1,0c1.4-0.1,2.5-1.2,2.5-2.7C87.2,28.2,87.2,28.2,87.2,28.2z M92.6,19v13.4h-2V19L92.6,19z
					 M100.5,29.7l1.6,1c-0.9,1.3-2.3,2-3.8,2c-2.4,0-4.5-1.9-4.5-4.4c0-0.1,0-0.1,0-0.2c-0.2-2.3,1.5-4.4,3.8-4.6
					c2-0.2,3.8,1,4.4,2.9l0.2,0.5l-6.1,2.5c0.4,0.9,1.3,1.4,2.2,1.4C99.2,30.9,100,30.4,100.5,29.7z M95.7,28l4.1-1.7
					c-0.3-0.6-1-1-1.7-1C96.7,25.4,95.6,26.6,95.7,28C95.7,28,95.7,28,95.7,28z"/>
				<path d="M84.6,37c-1.8,0-3.4-1.1-4.2-2.7l0-0.1l2-0.9l0,0.1c0.4,0.9,1.2,1.5,2.2,1.5c1.5,0,2.3-0.9,2.3-2.6v-0.4
					c-0.6,0.6-1.5,1-2.3,0.9c-2.6,0-4.7-2.1-4.7-4.7s2.1-4.7,4.7-4.7c0,0,0,0,0.1,0c0.9,0,1.7,0.3,2.3,0.9v-0.7h2.2v8.4
					C89.1,35.1,87.5,37,84.6,37C84.6,37,84.6,37,84.6,37z M80.7,34.2c0.7,1.5,2.2,2.5,3.9,2.5c0,0,0,0,0,0c2.7,0,4.3-1.7,4.3-4.6V24
					h-1.7v0.8h-0.3l0,0c-0.6-0.6-1.4-1-2.3-1c0,0,0,0-0.1,0c-2.5,0-4.5,2-4.5,4.5c0,2.5,2,4.5,4.5,4.5c0.9,0,1.7-0.4,2.2-1l0,0h0.3
					v0.8c0,1.8-0.9,2.8-2.6,2.8c-1,0-1.9-0.7-2.4-1.6L80.7,34.2z M132.8,36.6h-2.4l2.1-4.7l-3.6-8.3h2.4l0,0.1l2.3,5.6l2.2-5.7h2.5
					L132.8,36.6z M130.8,36.4h1.8l5.4-12.4h-2l-2.3,5.8h-0.2l0-0.1l-2.4-5.8h-1.9l3.5,8l0,0.1L130.8,36.4z M64.4,33
					c-1.2,0-2.3-0.4-3.2-1.2c-0.9-0.8-1.4-2-1.5-3.2c0-0.1,0-0.3,0-0.4c-0.1-2.6,1.9-4.7,4.5-4.8c1.2-0.1,2.4,0.4,3.3,1.2
					c0.9,0.8,1.4,2,1.5,3.2c0,0.1,0,0.3,0,0.4c0,1.2-0.4,2.4-1.2,3.3c-0.8,0.9-2,1.4-3.2,1.5C64.5,33,64.5,33,64.4,33z M64.4,23.6
					c-0.1,0-0.1,0-0.2,0c-2.4,0.1-4.3,2.2-4.2,4.6c0,0.1,0,0.3,0,0.4c0,1.2,0.6,2.3,1.4,3.1c0.9,0.8,2,1.2,3.2,1.2
					c1.2,0,2.3-0.6,3.1-1.4c0.8-0.9,1.2-2,1.2-3.2v0c0-0.1,0-0.2,0-0.4C68.7,25.4,66.8,23.6,64.4,23.6z M124.5,32.9
					c-0.1,0-0.1,0-0.2,0c-2,0-3.5-1.3-3.5-3.1c0-2.1,2-3.2,4-3.2c0,0,0,0,0,0c0.7,0,1.3,0.2,1.9,0.4c-0.1-0.4-0.3-0.9-0.6-1.1
					c-0.4-0.3-0.8-0.4-1.3-0.4c-0.7-0.1-1.4,0.3-1.7,0.9l-0.1,0.1l-2-0.9l0.1-0.1c0.7-1.4,2.2-2.2,3.7-2.1l0.1,0l0,0
					c2.5,0,4.1,1.6,4.1,3.8v5.3h-2.2v-0.9C126.2,32.5,125.4,32.9,124.5,32.9z M124.8,26.9C124.8,26.9,124.8,26.9,124.8,26.9
					c-1.9,0-3.8,1-3.8,2.9c0,1.6,1.4,2.8,3.2,2.8c1,0.1,1.9-0.4,2.4-1.3l0-0.1h0.3v1h1.7v-5.1c0-2.2-1.6-3.6-4-3.6h-0.1l0,0
					c0,0-0.1,0-0.1,0c-1.3,0-2.5,0.7-3.2,1.9l1.6,0.7c0.4-0.6,1.1-1,1.9-0.9c0.5-0.1,1.1,0.1,1.5,0.5c0.4,0.3,0.7,0.8,0.7,1.4l0,0.4
					l-0.2-0.1C126.2,27,125.5,26.9,124.8,26.9z M52.5,32.9c-0.1,0-0.2,0-0.3,0c0,0,0,0,0,0c-4,0-7.3-3.2-7.3-7.2
					c0.1-4,3.4-7.2,7.3-7.2c0,0,0.1,0,0.1,0c1.8,0,3.6,0.7,4.9,2l0.1,0.1L55.6,22l-0.1-0.1c-0.9-0.9-2.1-1.4-3.4-1.4c0,0,0,0,0,0
					c-2.8,0-5,2.3-5,5s2.3,5,5,5c1.3,0.1,2.6-0.5,3.5-1.4c0.6-0.6,0.9-1.4,1-2.2H52v-2.1h6.8l0,0.1c0.1,0.4,0.1,0.8,0.1,1.2
					c0.1,1.7-0.5,3.4-1.7,4.7C55.9,32.2,54.2,32.9,52.5,32.9z M52.1,32.6L52.1,32.6c1.8,0.1,3.6-0.6,4.9-1.9
					c1.1-1.2,1.7-2.8,1.7-4.5c0-0.4,0-0.7-0.1-1.1h-6.3v1.6h4.7l0,0.1c-0.1,0.9-0.5,1.8-1.1,2.5c-1,1-2.3,1.5-3.7,1.5
					c-2.9,0-5.3-2.4-5.3-5.3s2.4-5.3,5.3-5.3c0,0,0,0,0,0c1.3,0,2.5,0.5,3.5,1.4l1.2-1.2c-1.3-1.2-3-1.9-4.7-1.8c0,0,0,0,0,0
					c-3.9,0-7,3.1-7.1,7C45.1,29.5,48.3,32.6,52.1,32.6C52.1,32.6,52.1,32.6,52.1,32.6L52.1,32.6z M98.2,32.9
					c-1.2,0-2.3-0.5-3.2-1.3c-0.9-0.8-1.4-2-1.4-3.2c0-0.1,0-0.1,0-0.2c-0.1-1.1,0.3-2.3,1-3.2c0.7-0.9,1.8-1.4,2.9-1.5
					c2-0.2,3.9,1.1,4.5,3l0.2,0.6l-6.1,2.5c0.4,0.7,1.1,1.2,2,1.2c0,0,0.1,0,0.1,0c0.9,0,1.7-0.5,2.1-1.2l0.1-0.1l1.8,1.2l-0.1,0.1
					C101.3,32.1,99.8,32.9,98.2,32.9C98.2,32.9,98.2,32.9,98.2,32.9z M98,23.7c-0.1,0-0.2,0-0.4,0c-1.1,0.1-2.1,0.6-2.8,1.4
					c-0.7,0.8-1,1.9-0.9,3c0,0.1,0,0.2,0,0.2c0,1.2,0.5,2.2,1.3,3c0.8,0.8,1.9,1.2,3.1,1.2c0,0,0,0,0,0c1.5,0,2.8-0.7,3.6-1.9
					l-1.4-0.9c-0.5,0.8-1.3,1.2-2.2,1.2c0,0-0.1,0-0.1,0c-1,0-1.9-0.6-2.3-1.5l-0.1-0.1l6.1-2.5l-0.2-0.4
					C101.3,24.8,99.7,23.7,98,23.7z M74.6,32.8c-2.6,0-4.7-2.1-4.7-4.7s2.1-4.7,4.7-4.7s4.7,2.1,4.7,4.7S77.1,32.8,74.6,32.8z
					 M74.6,23.7c-2.4,0-4.4,2-4.4,4.4s2,4.4,4.4,4.4c2.4,0,4.4-2,4.4-4.4S77,23.7,74.6,23.7z M92.7,32.6h-2.3V18.9h2.3V32.6z
					 M90.7,32.3h1.8V19.1h-1.8V32.3z M120,32.6h-2.2V18.9h2.2V32.6z M118,32.3h1.8V19.1H118V32.3z M109.6,32.6h-2.3V18.9h4.9V19
					l0-0.1c1.2,0,2.3,0.4,3.2,1.2c0.8,0.8,1.3,1.9,1.4,3.1l0,0c-0.1,2.4-2,4.3-4.4,4.3c-0.1,0-0.1,0-0.2,0h-2.7V32.6z M107.6,32.3
					h1.8v-5.1h2.9c0,0,0.1,0,0.1,0c2.2,0,4.1-1.8,4.1-4l0.1-0.1l-0.1,0c0-1.1-0.5-2.1-1.3-2.9c-0.8-0.7-1.8-1.2-2.9-1.2
					c0,0-0.1,0-0.1,0l-4.7,0V32.3z M112.3,18.9l0,0.1L112.3,18.9z M74.6,31.1c-0.1,0-0.2,0-0.3,0c-0.7-0.1-1.4-0.4-1.8-1
					c-0.5-0.6-0.7-1.2-0.6-2c0-0.1,0-0.3,0-0.5c0.1-0.7,0.4-1.4,1-1.8c0.6-0.5,1.3-0.7,2-0.6c1.5,0.1,2.6,1.4,2.4,2.9
					c0,0.2,0,0.3,0,0.5c-0.1,0.7-0.4,1.4-1,1.8C75.8,30.9,75.2,31.1,74.6,31.1z M74.6,25.5c-0.6,0-1.1,0.2-1.5,0.6
					c-0.5,0.4-0.8,1-0.9,1.6c0,0.2,0,0.3,0,0.5c-0.1,0.7,0.1,1.3,0.5,1.8c0.4,0.5,1,0.8,1.6,0.9c0.6,0.1,1.3-0.1,1.8-0.5
					c0.5-0.4,0.8-1,0.9-1.6c0-0.2,0-0.3,0-0.5l0,0l0,0c0.1-1.3-0.9-2.5-2.2-2.7C74.7,25.5,74.7,25.5,74.6,25.5z M64.4,31.1
					c-0.1,0-0.2,0-0.3,0c-1.5-0.1-2.6-1.5-2.4-2.9c0-0.1,0-0.3,0-0.5c0.1-0.7,0.4-1.4,1-1.8c0.6-0.5,1.3-0.7,2-0.6
					c1.5,0.1,2.6,1.4,2.4,2.9c0,0.2,0,0.3,0,0.5c-0.1,0.7-0.4,1.4-1,1.8C65.6,30.9,65,31.1,64.4,31.1z M64.4,25.5
					c-0.6,0-1.1,0.2-1.5,0.6c-0.5,0.4-0.8,1-0.9,1.6c0,0.2,0,0.3,0,0.5c-0.1,1.4,0.9,2.5,2.2,2.7c0.6,0.1,1.3-0.1,1.8-0.5
					c0.5-0.4,0.8-1,0.9-1.6c0-0.2,0-0.3,0-0.5l0,0l0,0c0.1-1.3-0.9-2.5-2.2-2.7C64.6,25.5,64.5,25.5,64.4,25.5z M84.8,31.1
					L84.8,31.1c-1.6-0.1-2.8-1.4-2.7-2.9l0,0c-0.1-1.5,1.2-2.8,2.7-2.9c0,0,0.1,0,0.1,0c1.5,0.1,2.6,1.4,2.5,2.9c0,0,0,0.1,0,0.1
					C87.4,29.7,86.3,31,84.8,31.1L84.8,31.1z M84.8,25.5c-1.4,0-2.5,1.2-2.4,2.6l0,0.1c-0.1,1.4,1,2.6,2.4,2.6l0.1,0
					c1.3-0.1,2.4-1.2,2.3-2.5c0,0,0-0.1,0-0.1v0C87.2,26.8,86.2,25.6,84.8,25.5L84.8,25.5z M124.5,31L124.5,31
					c-0.7,0-1.7-0.3-1.7-1.3c0-1.1,1.1-1.6,2.3-1.6c0.7,0,1.3,0.1,1.9,0.5l0.1,0l0,0.1C126.9,30.1,125.8,31,124.5,31L124.5,31z
					 M125.2,28.5C125.1,28.5,125.1,28.5,125.2,28.5c-1.1,0-2.1,0.4-2.1,1.3c0,0.7,0.9,1,1.4,1c1.1,0,2.1-0.8,2.3-1.9
					C126.3,28.6,125.7,28.5,125.2,28.5z M95.6,28.2l0-0.2c0,0,0,0,0-0.1c-0.1-1.4,1.1-2.7,2.5-2.7c0.8,0,1.5,0.4,1.8,1l0.1,0.1
					L95.6,28.2z M98.2,25.5c0,0-0.1,0-0.1,0c-1.3,0.1-2.3,1.1-2.3,2.4l3.8-1.6C99.3,25.8,98.8,25.5,98.2,25.5z M112.4,25.6h-3v-4.8
					h3c1.3,0,2.4,1.1,2.4,2.4C114.8,24.5,113.7,25.6,112.4,25.6z M109.6,25.3h2.7c1.2,0,2.2-1,2.2-2.2c0-1.2-1-2.2-2.2-2.2h-2.7
					V25.3z"/>
			</g>
			<g>
				<path class="st3" d="M19.2,20.2L7.4,32.5c0.5,1.7,2.2,2.7,3.9,2.2c0.3-0.1,0.5-0.2,0.7-0.3l13.2-7.5L19.2,20.2z"/>
			</g>
			<g>
				<path class="st4" d="M31.1,18.1l-5.7-3.3l-6.4,5.7l6.5,6.4l5.7-3.2c1.5-0.8,2.1-2.7,1.3-4.2C32.1,18.8,31.7,18.4,31.1,18.1
					L31.1,18.1z"/>
			</g>
			<g>
				<path class="st5" d="M7.4,9.1C7.4,9.4,7.3,9.7,7.3,9.9v21.8c0,0.3,0,0.5,0.1,0.8l12.2-12L7.4,9.1z"/>
			</g>
			<g>
				<path class="st6" d="M19.3,20.8l6.1-6L12.2,7.2c-0.5-0.3-1.1-0.4-1.6-0.4c-1.4,0-2.7,0.9-3.1,2.3L19.3,20.8z"/>
			</g>
		</g>
	</g>
	<g>
		<path class="st7" d="M45.6,7.5c0.5-0.1,1.1-0.1,1.7-0.1c1.1,0,1.9,0.3,2.5,0.8c0.5,0.5,0.9,1.2,0.9,2.2c0,1-0.3,1.8-0.9,2.4
			c-0.6,0.6-1.5,0.9-2.7,0.9c-0.6,0-1,0-1.4-0.1V7.5z M46.4,12.8c0.2,0,0.5,0,0.8,0c1.7,0,2.6-0.9,2.6-2.6c0-1.4-0.8-2.3-2.5-2.3
			c-0.4,0-0.7,0-0.9,0.1V12.8z"/>
		<path class="st7" d="M53,7.4v6.1h-0.8V7.4H53z"/>
		<path class="st7" d="M55,12.5c0.4,0.2,0.9,0.4,1.4,0.4c0.8,0,1.3-0.4,1.3-1c0-0.6-0.3-0.9-1.1-1.2c-1-0.4-1.6-0.9-1.6-1.7
			c0-0.9,0.8-1.6,2-1.6c0.6,0,1.1,0.1,1.3,0.3L58,8.2c-0.2-0.1-0.6-0.3-1.1-0.3c-0.8,0-1.1,0.5-1.1,0.9c0,0.6,0.4,0.8,1.2,1.2
			c1,0.4,1.5,0.9,1.5,1.8c0,0.9-0.7,1.8-2.1,1.8c-0.6,0-1.2-0.2-1.6-0.4L55,12.5z"/>
		<path class="st7" d="M60.2,7.4c0.4-0.1,0.9-0.1,1.5-0.1c0.8,0,1.3,0.2,1.7,0.5c0.3,0.3,0.5,0.7,0.5,1.3c0,0.6-0.2,1-0.5,1.3
			c-0.4,0.4-1.1,0.7-1.9,0.7c-0.2,0-0.5,0-0.6-0.1v2.4h-0.8V7.4z M61,10.4c0.2,0,0.4,0.1,0.6,0.1c1,0,1.5-0.5,1.5-1.3
			c0-0.8-0.6-1.2-1.4-1.2c-0.3,0-0.6,0-0.7,0.1V10.4z"/>
		<path class="st7" d="M70.8,10.3c0,2.1-1.3,3.2-2.8,3.2c-1.6,0-2.7-1.2-2.7-3.1c0-1.9,1.2-3.2,2.8-3.2C69.8,7.3,70.8,8.5,70.8,10.3
			z M66.1,10.4c0,1.3,0.7,2.5,1.9,2.5c1.2,0,1.9-1.1,1.9-2.5c0-1.2-0.6-2.5-1.9-2.5C66.8,7.9,66.1,9.1,66.1,10.4z"/>
		<path class="st7" d="M72.5,13.4V7.4h0.9l1.9,3.1c0.4,0.7,0.8,1.3,1.1,2l0,0c-0.1-0.8-0.1-1.5-0.1-2.5V7.4h0.7v6.1h-0.8l-1.9-3.1
			c-0.4-0.7-0.8-1.4-1.1-2l0,0c0,0.8,0.1,1.5,0.1,2.5v2.6H72.5z"/>
		<path class="st7" d="M79.9,7.4v6.1h-0.8V7.4H79.9z"/>
		<path class="st7" d="M81.9,7.5c0.3-0.1,0.9-0.1,1.4-0.1c0.8,0,1.3,0.1,1.7,0.4c0.3,0.2,0.5,0.6,0.5,1.1c0,0.6-0.4,1.1-1,1.3v0
			c0.6,0.1,1.3,0.6,1.3,1.5c0,0.5-0.2,0.9-0.5,1.2c-0.4,0.4-1.1,0.6-2.1,0.6c-0.5,0-1,0-1.2-0.1V7.5z M82.7,9.9h0.7
			c0.8,0,1.3-0.4,1.3-1c0-0.7-0.5-1-1.3-1c-0.4,0-0.6,0-0.7,0.1V9.9z M82.7,12.8c0.2,0,0.4,0,0.7,0c0.8,0,1.6-0.3,1.6-1.2
			c0-0.8-0.7-1.2-1.6-1.2h-0.7V12.8z"/>
		<path class="st7" d="M87.5,7.4h0.8v5.4h2.6v0.7h-3.4V7.4z"/>
		<path class="st7" d="M95.6,10.6h-2.4v2.2h2.6v0.7h-3.4V7.4h3.3V8h-2.5v1.9h2.4V10.6z"/>
		<path class="st7" d="M100,12.5c0.3,0.2,0.9,0.4,1.4,0.4c0.8,0,1.3-0.4,1.3-1c0-0.6-0.3-0.9-1.1-1.2c-1-0.4-1.6-0.9-1.6-1.7
			c0-0.9,0.8-1.6,2-1.6c0.6,0,1.1,0.1,1.3,0.3L103,8.2c-0.2-0.1-0.6-0.3-1.1-0.3c-0.8,0-1.1,0.5-1.1,0.9c0,0.6,0.4,0.8,1.2,1.2
			c1,0.4,1.5,0.9,1.5,1.8c0,0.9-0.7,1.8-2.1,1.8c-0.6,0-1.2-0.2-1.5-0.4L100,12.5z"/>
		<path class="st7" d="M106,7.4V11c0,1.4,0.6,1.9,1.4,1.9c0.9,0,1.5-0.6,1.5-1.9V7.4h0.8v3.5c0,1.9-1,2.6-2.3,2.6
			c-1.2,0-2.2-0.7-2.2-2.6V7.4H106z"/>
		<path class="st7" d="M111.7,7.5c0.4-0.1,1-0.1,1.5-0.1c0.8,0,1.4,0.2,1.8,0.5c0.3,0.3,0.5,0.7,0.5,1.2c0,0.8-0.5,1.3-1.1,1.5v0
			c0.5,0.2,0.7,0.6,0.9,1.2c0.2,0.8,0.3,1.4,0.5,1.7h-0.8c-0.1-0.2-0.2-0.7-0.4-1.5c-0.2-0.8-0.5-1.2-1.2-1.2h-0.7v2.6h-0.8V7.5z
			 M112.5,10.2h0.8c0.8,0,1.4-0.5,1.4-1.2c0-0.8-0.6-1.1-1.4-1.1c-0.4,0-0.6,0-0.8,0.1V10.2z"/>
	</g>
</g>
</svg>
