<?xml version="1.0" encoding="iso-8859-1"?>
<!-- Generator: Adobe Illustrator 19.0.0, SVG Export Plug-In . SVG Version: 6.00 Build 0)  -->
<svg version="1.1" id="Capa_1" xmlns="http://www.w3.org/2000/svg" xmlns:xlink="http://www.w3.org/1999/xlink" x="0px" y="0px"
	 viewBox="0 0 496 496" style="enable-background:new 0 0 496 496;" xml:space="preserve">
<path style="fill:#F0BC5E;" d="M472,320H108.688L176,252.688V136c0-13.232,10.768-24,24-24h272c13.232,0,24,10.768,24,24v160
	C496,309.232,485.232,320,472,320z"/>
<path d="M416,208c-8.824,0-16-7.176-16-16s7.176-16,16-16s16,7.176,16,16h16c0-17.648-14.352-32-32-32s-32,14.352-32,32
	s14.352,32,32,32c8.824,0,16,7.176,16,16s-7.176,16-16,16s-16-7.176-16-16h-16c0,17.648,14.352,32,32,32s32-14.352,32-32
	S433.648,208,416,208z"/>
<path d="M256,176c8.824,0,16,7.176,16,16h16c0-17.648-14.352-32-32-32s-32,14.352-32,32s14.352,32,32,32c8.824,0,16,7.176,16,16
	s-7.176,16-16,16s-16-7.176-16-16h-16c0,17.648,14.352,32,32,32s32-14.352,32-32s-14.352-32-32-32c-8.824,0-16-7.176-16-16
	S247.176,176,256,176z"/>
<polygon points="336,199.016 326.248,160 304,160 304,264 320,264 320,200.984 336,264.984 352,200.984 352,264 368,264 368,160 
	345.752,160 "/>
<path d="M248,0H40C17.944,0,0,17.944,0,40v416c0,22.056,17.944,40,40,40h208c22.056,0,40-17.944,40-40V336h-16v80H16V80h256v32h16
	V40C288,17.944,270.056,0,248,0z M272,432v24c0,13.232-10.768,24-24,24H40c-13.232,0-24-10.768-24-24v-24H272z M16,64V40
	c0-13.232,10.768-24,24-24h208c13.232,0,24,10.768,24,24v24H16z"/>
<rect x="112" y="448" width="64" height="16"/>
<rect x="240" y="336" width="16" height="16"/>
<rect x="208" y="336" width="16" height="16"/>
<rect x="176" y="336" width="16" height="16"/>
<rect x="144" y="336" width="16" height="16"/>
<g>
</g>
<g>
</g>
<g>
</g>
<g>
</g>
<g>
</g>
<g>
</g>
<g>
</g>
<g>
</g>
<g>
</g>
<g>
</g>
<g>
</g>
<g>
</g>
<g>
</g>
<g>
</g>
<g>
</g>
</svg>
